<?xml version="1.0" encoding="utf-8" standalone="no"?>
<!DOCTYPE svg PUBLIC "-//W3C//DTD SVG 1.1//EN"
  "http://www.w3.org/Graphics/SVG/1.1/DTD/svg11.dtd">
<!-- Created with matplotlib (http://matplotlib.org/) -->
<svg height="361pt" version="1.1" viewBox="0 0 293 361" width="293pt" xmlns="http://www.w3.org/2000/svg" xmlns:xlink="http://www.w3.org/1999/xlink">
 <defs>
  <style type="text/css">
*{stroke-linecap:butt;stroke-linejoin:round;stroke-miterlimit:100000;}
  </style>
 </defs>
 <g id="figure_1">
  <g id="patch_1">
   <path d="M 0 361 
L 293 361 
L 293 0 
L 0 0 
z
" style="fill:#ffffff;"/>
  </g>
  <g id="axes_1">
   <g id="patch_2">
    <path d="M 39.865 115.947544 
L 259.42425 115.947544 
L 259.42425 28.90175 
L 39.865 28.90175 
z
" style="fill:#ffffff;"/>
   </g>
   <g id="line2d_1">
    <path clip-path="url(#p9c9ea03799)" d="M 39.865 41.04947 
L 41.078035 40.633588 
L 44.717138 42.268113 
L 45.930173 36.842264 
L 47.143207 42.152049 
L 48.356242 52.626568 
L 49.569276 62.395031 
L 53.20838 73.62395 
L 54.421414 57.955697 
L 55.634449 61.67933 
L 56.847483 63.42992 
L 58.060518 61.408515 
L 61.699622 63.768426 
L 62.912656 59.029261 
L 64.125691 59.406468 
L 66.55176 56.427564 
L 70.190863 55.460392 
L 71.403898 53.264905 
L 72.616932 48.032482 
L 73.829967 44.096078 
L 75.043001 46.098125 
L 78.682105 49.347845 
L 79.89514 48.42902 
L 81.108174 42.925795 
L 82.321209 38.621869 
L 83.534243 34.414649 
L 87.173347 34.501697 
L 88.386381 39.985578 
L 89.599416 37.741731 
L 90.81245 36.803576 
L 92.025485 38.196302 
L 95.664589 43.989686 
L 96.877623 45.363081 
L 98.090658 45.227673 
L 99.303692 41.271926 
L 100.516727 34.791843 
L 104.15583 30.062363 
L 106.581899 29.917283 
L 107.794934 30.284806 
L 109.007968 29.066176 
L 112.647072 30.758733 
L 115.073141 33.892376 
L 116.286176 33.805328 
L 117.49921 48.196906 
L 121.138314 50.5278 
L 122.351348 56.708051 
L 123.564383 48.825571 
L 124.777417 50.160265 
L 125.990452 55.315312 
L 129.629555 49.425208 
L 130.84259 58.845506 
L 132.055625 67.936957 
L 133.268659 66.727986 
L 134.481694 66.273416 
L 139.333832 71.805658 
L 140.546866 87.831748 
L 141.759901 91.187846 
L 142.972935 96.594365 
L 146.612039 96.594365 
L 147.825073 95.114578 
L 149.038108 94.495597 
L 150.251143 91.419973 
L 151.464177 92.977123 
L 155.103281 95.008199 
L 156.316315 97.22303 
L 157.52935 104.341437 
L 158.742384 105.076494 
L 159.955419 100.975667 
L 163.594522 97.135982 
L 164.807557 101.575316 
L 166.020591 97.184342 
L 167.233626 99.060667 
L 168.446661 101.797772 
L 173.298799 104.167341 
L 174.511833 102.581175 
L 175.724868 104.786334 
L 176.937902 106.798067 
L 180.577006 106.527251 
L 181.79004 107.097886 
L 183.003075 103.412953 
L 184.216109 96.691084 
L 185.429144 101.420565 
L 189.068248 104.60258 
L 190.281282 101.807444 
L 191.494317 101.933167 
L 192.707351 105.376312 
L 193.920386 104.09965 
L 197.559489 106.575612 
L 198.772524 99.167046 
L 199.985558 100.44372 
L 201.198593 98.596412 
L 202.411627 99.882759 
L 206.050731 99.766696 
L 207.263766 93.876604 
L 208.4768 96.923199 
L 209.689835 93.441365 
L 214.541973 87.386849 
L 215.755007 85.984452 
L 216.968042 82.038375 
L 218.181076 86.69048 
L 219.394111 84.021079 
L 223.033214 83.547165 
L 224.246249 77.715092 
L 225.459284 79.688137 
L 226.672318 75.703373 
L 227.885353 74.281618 
L 231.524456 71.563858 
L 232.737491 74.513746 
L 233.950525 75.867797 
L 235.16356 72.859877 
L 236.376594 80.026644 
L 240.015698 79.407649 
L 241.228732 78.827344 
L 242.441767 73.68197 
L 243.654802 72.917909 
L 244.867836 66.582906 
L 248.50694 59.696614 
L 249.719974 67.395339 
L 250.933009 64.79363 
L 252.146043 58.942226 
L 253.359078 58.178152 
L 256.998181 55.750538 
L 258.211216 53.032778 
L 259.42425 54.096669 
" style="fill:none;stroke:#ff0000;stroke-linecap:square;"/>
   </g>
   <g id="patch_3">
    <path d="M 39.865 115.947544 
L 259.42425 115.947544 
" style="fill:none;stroke:#000000;stroke-linecap:square;stroke-linejoin:miter;"/>
   </g>
   <g id="patch_4">
    <path d="M 39.865 28.90175 
L 259.42425 28.90175 
" style="fill:none;stroke:#000000;stroke-linecap:square;stroke-linejoin:miter;"/>
   </g>
   <g id="patch_5">
    <path d="M 39.865 115.947544 
L 39.865 28.90175 
" style="fill:none;stroke:#000000;stroke-linecap:square;stroke-linejoin:miter;"/>
   </g>
   <g id="patch_6">
    <path d="M 259.42425 115.947544 
L 259.42425 28.90175 
" style="fill:none;stroke:#000000;stroke-linecap:square;stroke-linejoin:miter;"/>
   </g>
   <g id="matplotlib.axis_1">
    <g id="xtick_1">
     <g id="line2d_2">
      <defs>
       <path d="M 0 0 
L 0 -4 
" id="md9226005ee" style="stroke:#000000;stroke-width:0.5;"/>
      </defs>
      <g>
       <use style="stroke:#000000;stroke-width:0.5;" x="39.8650000001071" xlink:href="#md9226005ee" y="115.94754444266474"/>
      </g>
     </g>
     <g id="line2d_3">
      <defs>
       <path d="M 0 0 
L 0 4 
" id="m05e0a78ec8" style="stroke:#000000;stroke-width:0.5;"/>
      </defs>
      <g>
       <use style="stroke:#000000;stroke-width:0.5;" x="39.8650000001071" xlink:href="#m05e0a78ec8" y="28.901749999999993"/>
      </g>
     </g>
     <g id="text_1">
      <!-- Nov 2007 -->
      <defs>
       <path d="M 19.1875 8.296875 
L 53.609375 8.296875 
L 53.609375 0 
L 7.328125 0 
L 7.328125 8.296875 
Q 12.9375 14.109375 22.625 23.890625 
Q 32.328125 33.6875 34.8125 36.53125 
Q 39.546875 41.84375 41.421875 45.53125 
Q 43.3125 49.21875 43.3125 52.78125 
Q 43.3125 58.59375 39.234375 62.25 
Q 35.15625 65.921875 28.609375 65.921875 
Q 23.96875 65.921875 18.8125 64.3125 
Q 13.671875 62.703125 7.8125 59.421875 
L 7.8125 69.390625 
Q 13.765625 71.78125 18.9375 73 
Q 24.125 74.21875 28.421875 74.21875 
Q 39.75 74.21875 46.484375 68.546875 
Q 53.21875 62.890625 53.21875 53.421875 
Q 53.21875 48.921875 51.53125 44.890625 
Q 49.859375 40.875 45.40625 35.40625 
Q 44.1875 33.984375 37.640625 27.21875 
Q 31.109375 20.453125 19.1875 8.296875 
" id="BitstreamVeraSans-Roman-32"/>
       <path d="M 2.984375 54.6875 
L 12.5 54.6875 
L 29.59375 8.796875 
L 46.6875 54.6875 
L 56.203125 54.6875 
L 35.6875 0 
L 23.484375 0 
z
" id="BitstreamVeraSans-Roman-76"/>
       <path d="M 8.203125 72.90625 
L 55.078125 72.90625 
L 55.078125 68.703125 
L 28.609375 0 
L 18.3125 0 
L 43.21875 64.59375 
L 8.203125 64.59375 
z
" id="BitstreamVeraSans-Roman-37"/>
       <path d="M 9.8125 72.90625 
L 23.09375 72.90625 
L 55.421875 11.921875 
L 55.421875 72.90625 
L 64.984375 72.90625 
L 64.984375 0 
L 51.703125 0 
L 19.390625 60.984375 
L 19.390625 0 
L 9.8125 0 
z
" id="BitstreamVeraSans-Roman-4e"/>
       <path d="M 30.609375 48.390625 
Q 23.390625 48.390625 19.1875 42.75 
Q 14.984375 37.109375 14.984375 27.296875 
Q 14.984375 17.484375 19.15625 11.84375 
Q 23.34375 6.203125 30.609375 6.203125 
Q 37.796875 6.203125 41.984375 11.859375 
Q 46.1875 17.53125 46.1875 27.296875 
Q 46.1875 37.015625 41.984375 42.703125 
Q 37.796875 48.390625 30.609375 48.390625 
M 30.609375 56 
Q 42.328125 56 49.015625 48.375 
Q 55.71875 40.765625 55.71875 27.296875 
Q 55.71875 13.875 49.015625 6.21875 
Q 42.328125 -1.421875 30.609375 -1.421875 
Q 18.84375 -1.421875 12.171875 6.21875 
Q 5.515625 13.875 5.515625 27.296875 
Q 5.515625 40.765625 12.171875 48.375 
Q 18.84375 56 30.609375 56 
" id="BitstreamVeraSans-Roman-6f"/>
       <path id="BitstreamVeraSans-Roman-20"/>
       <path d="M 31.78125 66.40625 
Q 24.171875 66.40625 20.328125 58.90625 
Q 16.5 51.421875 16.5 36.375 
Q 16.5 21.390625 20.328125 13.890625 
Q 24.171875 6.390625 31.78125 6.390625 
Q 39.453125 6.390625 43.28125 13.890625 
Q 47.125 21.390625 47.125 36.375 
Q 47.125 51.421875 43.28125 58.90625 
Q 39.453125 66.40625 31.78125 66.40625 
M 31.78125 74.21875 
Q 44.046875 74.21875 50.515625 64.515625 
Q 56.984375 54.828125 56.984375 36.375 
Q 56.984375 17.96875 50.515625 8.265625 
Q 44.046875 -1.421875 31.78125 -1.421875 
Q 19.53125 -1.421875 13.0625 8.265625 
Q 6.59375 17.96875 6.59375 36.375 
Q 6.59375 54.828125 13.0625 64.515625 
Q 19.53125 74.21875 31.78125 74.21875 
" id="BitstreamVeraSans-Roman-30"/>
      </defs>
      <g transform="translate(21.779418246046422 167.24901062840058)rotate(-45.0)scale(0.12 -0.12)">
       <use xlink:href="#BitstreamVeraSans-Roman-4e"/>
       <use x="74.8046875" xlink:href="#BitstreamVeraSans-Roman-6f"/>
       <use x="135.986328125" xlink:href="#BitstreamVeraSans-Roman-76"/>
       <use x="195.166015625" xlink:href="#BitstreamVeraSans-Roman-20"/>
       <use x="226.953125" xlink:href="#BitstreamVeraSans-Roman-32"/>
       <use x="290.576171875" xlink:href="#BitstreamVeraSans-Roman-30"/>
       <use x="354.19921875" xlink:href="#BitstreamVeraSans-Roman-30"/>
       <use x="417.822265625" xlink:href="#BitstreamVeraSans-Roman-37"/>
      </g>
     </g>
    </g>
    <g id="xtick_2">
     <g id="line2d_4">
      <g>
       <use style="stroke:#000000;stroke-width:0.5;" x="76.2560359906638" xlink:href="#md9226005ee" y="115.94754444266474"/>
      </g>
     </g>
     <g id="line2d_5">
      <g>
       <use style="stroke:#000000;stroke-width:0.5;" x="76.2560359906638" xlink:href="#m05e0a78ec8" y="28.901749999999993"/>
      </g>
     </g>
     <g id="text_2">
      <!-- Dec 2007 -->
      <defs>
       <path d="M 48.78125 52.59375 
L 48.78125 44.1875 
Q 44.96875 46.296875 41.140625 47.34375 
Q 37.3125 48.390625 33.40625 48.390625 
Q 24.65625 48.390625 19.8125 42.84375 
Q 14.984375 37.3125 14.984375 27.296875 
Q 14.984375 17.28125 19.8125 11.734375 
Q 24.65625 6.203125 33.40625 6.203125 
Q 37.3125 6.203125 41.140625 7.25 
Q 44.96875 8.296875 48.78125 10.40625 
L 48.78125 2.09375 
Q 45.015625 0.34375 40.984375 -0.53125 
Q 36.96875 -1.421875 32.421875 -1.421875 
Q 20.0625 -1.421875 12.78125 6.34375 
Q 5.515625 14.109375 5.515625 27.296875 
Q 5.515625 40.671875 12.859375 48.328125 
Q 20.21875 56 33.015625 56 
Q 37.15625 56 41.109375 55.140625 
Q 45.0625 54.296875 48.78125 52.59375 
" id="BitstreamVeraSans-Roman-63"/>
       <path d="M 56.203125 29.59375 
L 56.203125 25.203125 
L 14.890625 25.203125 
Q 15.484375 15.921875 20.484375 11.0625 
Q 25.484375 6.203125 34.421875 6.203125 
Q 39.59375 6.203125 44.453125 7.46875 
Q 49.3125 8.734375 54.109375 11.28125 
L 54.109375 2.78125 
Q 49.265625 0.734375 44.1875 -0.34375 
Q 39.109375 -1.421875 33.890625 -1.421875 
Q 20.796875 -1.421875 13.15625 6.1875 
Q 5.515625 13.8125 5.515625 26.8125 
Q 5.515625 40.234375 12.765625 48.109375 
Q 20.015625 56 32.328125 56 
Q 43.359375 56 49.78125 48.890625 
Q 56.203125 41.796875 56.203125 29.59375 
M 47.21875 32.234375 
Q 47.125 39.59375 43.09375 43.984375 
Q 39.0625 48.390625 32.421875 48.390625 
Q 24.90625 48.390625 20.390625 44.140625 
Q 15.875 39.890625 15.1875 32.171875 
z
" id="BitstreamVeraSans-Roman-65"/>
       <path d="M 19.671875 64.796875 
L 19.671875 8.109375 
L 31.59375 8.109375 
Q 46.6875 8.109375 53.6875 14.9375 
Q 60.6875 21.78125 60.6875 36.53125 
Q 60.6875 51.171875 53.6875 57.984375 
Q 46.6875 64.796875 31.59375 64.796875 
z
M 9.8125 72.90625 
L 30.078125 72.90625 
Q 51.265625 72.90625 61.171875 64.09375 
Q 71.09375 55.28125 71.09375 36.53125 
Q 71.09375 17.671875 61.125 8.828125 
Q 51.171875 0 30.078125 0 
L 9.8125 0 
z
" id="BitstreamVeraSans-Roman-44"/>
      </defs>
      <g transform="translate(58.2413858855909 167.10714733042502)rotate(-45.0)scale(0.12 -0.12)">
       <use xlink:href="#BitstreamVeraSans-Roman-44"/>
       <use x="77.001953125" xlink:href="#BitstreamVeraSans-Roman-65"/>
       <use x="138.525390625" xlink:href="#BitstreamVeraSans-Roman-63"/>
       <use x="193.505859375" xlink:href="#BitstreamVeraSans-Roman-20"/>
       <use x="225.29296875" xlink:href="#BitstreamVeraSans-Roman-32"/>
       <use x="288.916015625" xlink:href="#BitstreamVeraSans-Roman-30"/>
       <use x="352.5390625" xlink:href="#BitstreamVeraSans-Roman-30"/>
       <use x="416.162109375" xlink:href="#BitstreamVeraSans-Roman-37"/>
      </g>
     </g>
    </g>
    <g id="xtick_3">
     <g id="line2d_6">
      <g>
       <use style="stroke:#000000;stroke-width:0.5;" x="113.86010651418474" xlink:href="#md9226005ee" y="115.94754444266474"/>
      </g>
     </g>
     <g id="line2d_7">
      <g>
       <use style="stroke:#000000;stroke-width:0.5;" x="113.86010651418474" xlink:href="#m05e0a78ec8" y="28.901749999999993"/>
      </g>
     </g>
     <g id="text_3">
      <!-- Jan 2008 -->
      <defs>
       <path d="M 34.28125 27.484375 
Q 23.390625 27.484375 19.1875 25 
Q 14.984375 22.515625 14.984375 16.5 
Q 14.984375 11.71875 18.140625 8.90625 
Q 21.296875 6.109375 26.703125 6.109375 
Q 34.1875 6.109375 38.703125 11.40625 
Q 43.21875 16.703125 43.21875 25.484375 
L 43.21875 27.484375 
z
M 52.203125 31.203125 
L 52.203125 0 
L 43.21875 0 
L 43.21875 8.296875 
Q 40.140625 3.328125 35.546875 0.953125 
Q 30.953125 -1.421875 24.3125 -1.421875 
Q 15.921875 -1.421875 10.953125 3.296875 
Q 6 8.015625 6 15.921875 
Q 6 25.140625 12.171875 29.828125 
Q 18.359375 34.515625 30.609375 34.515625 
L 43.21875 34.515625 
L 43.21875 35.40625 
Q 43.21875 41.609375 39.140625 45 
Q 35.0625 48.390625 27.6875 48.390625 
Q 23 48.390625 18.546875 47.265625 
Q 14.109375 46.140625 10.015625 43.890625 
L 10.015625 52.203125 
Q 14.9375 54.109375 19.578125 55.046875 
Q 24.21875 56 28.609375 56 
Q 40.484375 56 46.34375 49.84375 
Q 52.203125 43.703125 52.203125 31.203125 
" id="BitstreamVeraSans-Roman-61"/>
       <path d="M 9.8125 72.90625 
L 19.671875 72.90625 
L 19.671875 5.078125 
Q 19.671875 -8.109375 14.671875 -14.0625 
Q 9.671875 -20.015625 -1.421875 -20.015625 
L -5.171875 -20.015625 
L -5.171875 -11.71875 
L -2.09375 -11.71875 
Q 4.4375 -11.71875 7.125 -8.046875 
Q 9.8125 -4.390625 9.8125 5.078125 
z
" id="BitstreamVeraSans-Roman-4a"/>
       <path d="M 31.78125 34.625 
Q 24.75 34.625 20.71875 30.859375 
Q 16.703125 27.09375 16.703125 20.515625 
Q 16.703125 13.921875 20.71875 10.15625 
Q 24.75 6.390625 31.78125 6.390625 
Q 38.8125 6.390625 42.859375 10.171875 
Q 46.921875 13.96875 46.921875 20.515625 
Q 46.921875 27.09375 42.890625 30.859375 
Q 38.875 34.625 31.78125 34.625 
M 21.921875 38.8125 
Q 15.578125 40.375 12.03125 44.71875 
Q 8.5 49.078125 8.5 55.328125 
Q 8.5 64.0625 14.71875 69.140625 
Q 20.953125 74.21875 31.78125 74.21875 
Q 42.671875 74.21875 48.875 69.140625 
Q 55.078125 64.0625 55.078125 55.328125 
Q 55.078125 49.078125 51.53125 44.71875 
Q 48 40.375 41.703125 38.8125 
Q 48.828125 37.15625 52.796875 32.3125 
Q 56.78125 27.484375 56.78125 20.515625 
Q 56.78125 9.90625 50.3125 4.234375 
Q 43.84375 -1.421875 31.78125 -1.421875 
Q 19.734375 -1.421875 13.25 4.234375 
Q 6.78125 9.90625 6.78125 20.515625 
Q 6.78125 27.484375 10.78125 32.3125 
Q 14.796875 37.15625 21.921875 38.8125 
M 18.3125 54.390625 
Q 18.3125 48.734375 21.84375 45.5625 
Q 25.390625 42.390625 31.78125 42.390625 
Q 38.140625 42.390625 41.71875 45.5625 
Q 45.3125 48.734375 45.3125 54.390625 
Q 45.3125 60.0625 41.71875 63.234375 
Q 38.140625 66.40625 31.78125 66.40625 
Q 25.390625 66.40625 21.84375 63.234375 
Q 18.3125 60.0625 18.3125 54.390625 
" id="BitstreamVeraSans-Roman-38"/>
       <path d="M 54.890625 33.015625 
L 54.890625 0 
L 45.90625 0 
L 45.90625 32.71875 
Q 45.90625 40.484375 42.875 44.328125 
Q 39.84375 48.1875 33.796875 48.1875 
Q 26.515625 48.1875 22.3125 43.546875 
Q 18.109375 38.921875 18.109375 30.90625 
L 18.109375 0 
L 9.078125 0 
L 9.078125 54.6875 
L 18.109375 54.6875 
L 18.109375 46.1875 
Q 21.34375 51.125 25.703125 53.5625 
Q 30.078125 56 35.796875 56 
Q 45.21875 56 50.046875 50.171875 
Q 54.890625 44.34375 54.890625 33.015625 
" id="BitstreamVeraSans-Roman-6e"/>
      </defs>
      <g transform="translate(97.51533326705768 163.76739361453332)rotate(-45.0)scale(0.12 -0.12)">
       <use xlink:href="#BitstreamVeraSans-Roman-4a"/>
       <use x="29.4921875" xlink:href="#BitstreamVeraSans-Roman-61"/>
       <use x="90.771484375" xlink:href="#BitstreamVeraSans-Roman-6e"/>
       <use x="154.150390625" xlink:href="#BitstreamVeraSans-Roman-20"/>
       <use x="185.9375" xlink:href="#BitstreamVeraSans-Roman-32"/>
       <use x="249.560546875" xlink:href="#BitstreamVeraSans-Roman-30"/>
       <use x="313.18359375" xlink:href="#BitstreamVeraSans-Roman-30"/>
       <use x="376.806640625" xlink:href="#BitstreamVeraSans-Roman-38"/>
      </g>
     </g>
    </g>
    <g id="xtick_4">
     <g id="line2d_8">
      <g>
       <use style="stroke:#000000;stroke-width:0.5;" x="151.46417703782208" xlink:href="#md9226005ee" y="115.94754444266474"/>
      </g>
     </g>
     <g id="line2d_9">
      <g>
       <use style="stroke:#000000;stroke-width:0.5;" x="151.46417703782208" xlink:href="#m05e0a78ec8" y="28.901749999999993"/>
      </g>
     </g>
     <g id="text_4">
      <!-- Feb 2008 -->
      <defs>
       <path d="M 48.6875 27.296875 
Q 48.6875 37.203125 44.609375 42.84375 
Q 40.53125 48.484375 33.40625 48.484375 
Q 26.265625 48.484375 22.1875 42.84375 
Q 18.109375 37.203125 18.109375 27.296875 
Q 18.109375 17.390625 22.1875 11.75 
Q 26.265625 6.109375 33.40625 6.109375 
Q 40.53125 6.109375 44.609375 11.75 
Q 48.6875 17.390625 48.6875 27.296875 
M 18.109375 46.390625 
Q 20.953125 51.265625 25.265625 53.625 
Q 29.59375 56 35.59375 56 
Q 45.5625 56 51.78125 48.09375 
Q 58.015625 40.1875 58.015625 27.296875 
Q 58.015625 14.40625 51.78125 6.484375 
Q 45.5625 -1.421875 35.59375 -1.421875 
Q 29.59375 -1.421875 25.265625 0.953125 
Q 20.953125 3.328125 18.109375 8.203125 
L 18.109375 0 
L 9.078125 0 
L 9.078125 75.984375 
L 18.109375 75.984375 
z
" id="BitstreamVeraSans-Roman-62"/>
       <path d="M 9.8125 72.90625 
L 51.703125 72.90625 
L 51.703125 64.59375 
L 19.671875 64.59375 
L 19.671875 43.109375 
L 48.578125 43.109375 
L 48.578125 34.8125 
L 19.671875 34.8125 
L 19.671875 0 
L 9.8125 0 
z
" id="BitstreamVeraSans-Roman-46"/>
      </defs>
      <g transform="translate(133.91886905876174 166.1684630783999)rotate(-45.0)scale(0.12 -0.12)">
       <use xlink:href="#BitstreamVeraSans-Roman-46"/>
       <use x="57.44140625" xlink:href="#BitstreamVeraSans-Roman-65"/>
       <use x="118.96484375" xlink:href="#BitstreamVeraSans-Roman-62"/>
       <use x="182.44140625" xlink:href="#BitstreamVeraSans-Roman-20"/>
       <use x="214.228515625" xlink:href="#BitstreamVeraSans-Roman-32"/>
       <use x="277.8515625" xlink:href="#BitstreamVeraSans-Roman-30"/>
       <use x="341.474609375" xlink:href="#BitstreamVeraSans-Roman-30"/>
       <use x="405.09765625" xlink:href="#BitstreamVeraSans-Roman-38"/>
      </g>
     </g>
    </g>
    <g id="xtick_5">
     <g id="line2d_10">
      <g>
       <use style="stroke:#000000;stroke-width:0.5;" x="186.64217849541456" xlink:href="#md9226005ee" y="115.94754444266474"/>
      </g>
     </g>
     <g id="line2d_11">
      <g>
       <use style="stroke:#000000;stroke-width:0.5;" x="186.64217849541456" xlink:href="#m05e0a78ec8" y="28.901749999999993"/>
      </g>
     </g>
     <g id="text_5">
      <!-- Mar 2008 -->
      <defs>
       <path d="M 41.109375 46.296875 
Q 39.59375 47.171875 37.8125 47.578125 
Q 36.03125 48 33.890625 48 
Q 26.265625 48 22.1875 43.046875 
Q 18.109375 38.09375 18.109375 28.8125 
L 18.109375 0 
L 9.078125 0 
L 9.078125 54.6875 
L 18.109375 54.6875 
L 18.109375 46.1875 
Q 20.953125 51.171875 25.484375 53.578125 
Q 30.03125 56 36.53125 56 
Q 37.453125 56 38.578125 55.875 
Q 39.703125 55.765625 41.0625 55.515625 
z
" id="BitstreamVeraSans-Roman-72"/>
       <path d="M 9.8125 72.90625 
L 24.515625 72.90625 
L 43.109375 23.296875 
L 61.8125 72.90625 
L 76.515625 72.90625 
L 76.515625 0 
L 66.890625 0 
L 66.890625 64.015625 
L 48.09375 14.015625 
L 38.1875 14.015625 
L 19.390625 64.015625 
L 19.390625 0 
L 9.8125 0 
z
" id="BitstreamVeraSans-Roman-4d"/>
      </defs>
      <g transform="translate(168.83303129862398 166.69614151386037)rotate(-45.0)scale(0.12 -0.12)">
       <use xlink:href="#BitstreamVeraSans-Roman-4d"/>
       <use x="86.279296875" xlink:href="#BitstreamVeraSans-Roman-61"/>
       <use x="147.55859375" xlink:href="#BitstreamVeraSans-Roman-72"/>
       <use x="188.671875" xlink:href="#BitstreamVeraSans-Roman-20"/>
       <use x="220.458984375" xlink:href="#BitstreamVeraSans-Roman-32"/>
       <use x="284.08203125" xlink:href="#BitstreamVeraSans-Roman-30"/>
       <use x="347.705078125" xlink:href="#BitstreamVeraSans-Roman-30"/>
       <use x="411.328125" xlink:href="#BitstreamVeraSans-Roman-38"/>
      </g>
     </g>
    </g>
    <g id="xtick_6">
     <g id="line2d_12">
      <g>
       <use style="stroke:#000000;stroke-width:0.5;" x="224.2462490189355" xlink:href="#md9226005ee" y="115.94754444266474"/>
      </g>
     </g>
     <g id="line2d_13">
      <g>
       <use style="stroke:#000000;stroke-width:0.5;" x="224.2462490189355" xlink:href="#m05e0a78ec8" y="28.901749999999993"/>
      </g>
     </g>
     <g id="text_6">
      <!-- Apr 2008 -->
      <defs>
       <path d="M 18.109375 8.203125 
L 18.109375 -20.796875 
L 9.078125 -20.796875 
L 9.078125 54.6875 
L 18.109375 54.6875 
L 18.109375 46.390625 
Q 20.953125 51.265625 25.265625 53.625 
Q 29.59375 56 35.59375 56 
Q 45.5625 56 51.78125 48.09375 
Q 58.015625 40.1875 58.015625 27.296875 
Q 58.015625 14.40625 51.78125 6.484375 
Q 45.5625 -1.421875 35.59375 -1.421875 
Q 29.59375 -1.421875 25.265625 0.953125 
Q 20.953125 3.328125 18.109375 8.203125 
M 48.6875 27.296875 
Q 48.6875 37.203125 44.609375 42.84375 
Q 40.53125 48.484375 33.40625 48.484375 
Q 26.265625 48.484375 22.1875 42.84375 
Q 18.109375 37.203125 18.109375 27.296875 
Q 18.109375 17.390625 22.1875 11.75 
Q 26.265625 6.109375 33.40625 6.109375 
Q 40.53125 6.109375 44.609375 11.75 
Q 48.6875 17.390625 48.6875 27.296875 
" id="BitstreamVeraSans-Roman-70"/>
       <path d="M 34.1875 63.1875 
L 20.796875 26.90625 
L 47.609375 26.90625 
z
M 28.609375 72.90625 
L 39.796875 72.90625 
L 67.578125 0 
L 57.328125 0 
L 50.6875 18.703125 
L 17.828125 18.703125 
L 11.1875 0 
L 0.78125 0 
z
" id="BitstreamVeraSans-Roman-41"/>
      </defs>
      <g transform="translate(207.1020031673294 165.3663388234914)rotate(-45.0)scale(0.12 -0.12)">
       <use xlink:href="#BitstreamVeraSans-Roman-41"/>
       <use x="68.408203125" xlink:href="#BitstreamVeraSans-Roman-70"/>
       <use x="131.884765625" xlink:href="#BitstreamVeraSans-Roman-72"/>
       <use x="172.998046875" xlink:href="#BitstreamVeraSans-Roman-20"/>
       <use x="204.78515625" xlink:href="#BitstreamVeraSans-Roman-32"/>
       <use x="268.408203125" xlink:href="#BitstreamVeraSans-Roman-30"/>
       <use x="332.03125" xlink:href="#BitstreamVeraSans-Roman-30"/>
       <use x="395.654296875" xlink:href="#BitstreamVeraSans-Roman-38"/>
      </g>
     </g>
    </g>
   </g>
   <g id="matplotlib.axis_2">
    <g id="ytick_1">
     <g id="line2d_14">
      <defs>
       <path d="M 0 0 
L 4 0 
" id="m2fe5aecd86" style="stroke:#000000;stroke-width:0.5;"/>
      </defs>
      <g>
       <use style="stroke:#000000;stroke-width:0.5;" x="39.864999999999995" xlink:href="#m2fe5aecd86" y="115.94754444266472"/>
      </g>
     </g>
     <g id="line2d_15">
      <defs>
       <path d="M 0 0 
L -4 0 
" id="m376d642da9" style="stroke:#000000;stroke-width:0.5;"/>
      </defs>
      <g>
       <use style="stroke:#000000;stroke-width:0.5;" x="259.4242504764913" xlink:href="#m376d642da9" y="115.94754444266472"/>
      </g>
     </g>
     <g id="text_7">
      <!-- 110 -->
      <defs>
       <path d="M 12.40625 8.296875 
L 28.515625 8.296875 
L 28.515625 63.921875 
L 10.984375 60.40625 
L 10.984375 69.390625 
L 28.421875 72.90625 
L 38.28125 72.90625 
L 38.28125 8.296875 
L 54.390625 8.296875 
L 54.390625 0 
L 12.40625 0 
z
" id="BitstreamVeraSans-Roman-31"/>
      </defs>
      <g transform="translate(12.959999999999997 119.25879444266471)scale(0.12 -0.12)">
       <use xlink:href="#BitstreamVeraSans-Roman-31"/>
       <use x="63.623046875" xlink:href="#BitstreamVeraSans-Roman-31"/>
       <use x="127.24609375" xlink:href="#BitstreamVeraSans-Roman-30"/>
      </g>
     </g>
    </g>
    <g id="ytick_2">
     <g id="line2d_16">
      <g>
       <use style="stroke:#000000;stroke-width:0.5;" x="39.864999999999995" xlink:href="#m2fe5aecd86" y="106.27578950459086"/>
      </g>
     </g>
     <g id="line2d_17">
      <g>
       <use style="stroke:#000000;stroke-width:0.5;" x="259.4242504764913" xlink:href="#m376d642da9" y="106.27578950459086"/>
      </g>
     </g>
     <g id="text_8">
      <!-- 120 -->
      <g transform="translate(12.959999999999997 109.58703950459088)scale(0.12 -0.12)">
       <use xlink:href="#BitstreamVeraSans-Roman-31"/>
       <use x="63.623046875" xlink:href="#BitstreamVeraSans-Roman-32"/>
       <use x="127.24609375" xlink:href="#BitstreamVeraSans-Roman-30"/>
      </g>
     </g>
    </g>
    <g id="ytick_3">
     <g id="line2d_18">
      <g>
       <use style="stroke:#000000;stroke-width:0.5;" x="39.864999999999995" xlink:href="#m2fe5aecd86" y="96.604034566517"/>
      </g>
     </g>
     <g id="line2d_19">
      <g>
       <use style="stroke:#000000;stroke-width:0.5;" x="259.4242504764913" xlink:href="#m376d642da9" y="96.604034566517"/>
      </g>
     </g>
     <g id="text_9">
      <!-- 130 -->
      <defs>
       <path d="M 40.578125 39.3125 
Q 47.65625 37.796875 51.625 33 
Q 55.609375 28.21875 55.609375 21.1875 
Q 55.609375 10.40625 48.1875 4.484375 
Q 40.765625 -1.421875 27.09375 -1.421875 
Q 22.515625 -1.421875 17.65625 -0.515625 
Q 12.796875 0.390625 7.625 2.203125 
L 7.625 11.71875 
Q 11.71875 9.328125 16.59375 8.109375 
Q 21.484375 6.890625 26.8125 6.890625 
Q 36.078125 6.890625 40.9375 10.546875 
Q 45.796875 14.203125 45.796875 21.1875 
Q 45.796875 27.640625 41.28125 31.265625 
Q 36.765625 34.90625 28.71875 34.90625 
L 20.21875 34.90625 
L 20.21875 43.015625 
L 29.109375 43.015625 
Q 36.375 43.015625 40.234375 45.921875 
Q 44.09375 48.828125 44.09375 54.296875 
Q 44.09375 59.90625 40.109375 62.90625 
Q 36.140625 65.921875 28.71875 65.921875 
Q 24.65625 65.921875 20.015625 65.03125 
Q 15.375 64.15625 9.8125 62.3125 
L 9.8125 71.09375 
Q 15.4375 72.65625 20.34375 73.4375 
Q 25.25 74.21875 29.59375 74.21875 
Q 40.828125 74.21875 47.359375 69.109375 
Q 53.90625 64.015625 53.90625 55.328125 
Q 53.90625 49.265625 50.4375 45.09375 
Q 46.96875 40.921875 40.578125 39.3125 
" id="BitstreamVeraSans-Roman-33"/>
      </defs>
      <g transform="translate(12.959999999999997 99.91528456651696)scale(0.12 -0.12)">
       <use xlink:href="#BitstreamVeraSans-Roman-31"/>
       <use x="63.623046875" xlink:href="#BitstreamVeraSans-Roman-33"/>
       <use x="127.24609375" xlink:href="#BitstreamVeraSans-Roman-30"/>
      </g>
     </g>
    </g>
    <g id="ytick_4">
     <g id="line2d_20">
      <g>
       <use style="stroke:#000000;stroke-width:0.5;" x="39.864999999999995" xlink:href="#m2fe5aecd86" y="86.93227962844315"/>
      </g>
     </g>
     <g id="line2d_21">
      <g>
       <use style="stroke:#000000;stroke-width:0.5;" x="259.4242504764913" xlink:href="#m376d642da9" y="86.93227962844315"/>
      </g>
     </g>
     <g id="text_10">
      <!-- 140 -->
      <defs>
       <path d="M 37.796875 64.3125 
L 12.890625 25.390625 
L 37.796875 25.390625 
z
M 35.203125 72.90625 
L 47.609375 72.90625 
L 47.609375 25.390625 
L 58.015625 25.390625 
L 58.015625 17.1875 
L 47.609375 17.1875 
L 47.609375 0 
L 37.796875 0 
L 37.796875 17.1875 
L 4.890625 17.1875 
L 4.890625 26.703125 
z
" id="BitstreamVeraSans-Roman-34"/>
      </defs>
      <g transform="translate(12.959999999999997 90.24352962844313)scale(0.12 -0.12)">
       <use xlink:href="#BitstreamVeraSans-Roman-31"/>
       <use x="63.623046875" xlink:href="#BitstreamVeraSans-Roman-34"/>
       <use x="127.24609375" xlink:href="#BitstreamVeraSans-Roman-30"/>
      </g>
     </g>
    </g>
    <g id="ytick_5">
     <g id="line2d_22">
      <g>
       <use style="stroke:#000000;stroke-width:0.5;" x="39.864999999999995" xlink:href="#m2fe5aecd86" y="77.2605246903693"/>
      </g>
     </g>
     <g id="line2d_23">
      <g>
       <use style="stroke:#000000;stroke-width:0.5;" x="259.4242504764913" xlink:href="#m376d642da9" y="77.2605246903693"/>
      </g>
     </g>
     <g id="text_11">
      <!-- 150 -->
      <defs>
       <path d="M 10.796875 72.90625 
L 49.515625 72.90625 
L 49.515625 64.59375 
L 19.828125 64.59375 
L 19.828125 46.734375 
Q 21.96875 47.46875 24.109375 47.828125 
Q 26.265625 48.1875 28.421875 48.1875 
Q 40.625 48.1875 47.75 41.5 
Q 54.890625 34.8125 54.890625 23.390625 
Q 54.890625 11.625 47.5625 5.09375 
Q 40.234375 -1.421875 26.90625 -1.421875 
Q 22.3125 -1.421875 17.546875 -0.640625 
Q 12.796875 0.140625 7.71875 1.703125 
L 7.71875 11.625 
Q 12.109375 9.234375 16.796875 8.0625 
Q 21.484375 6.890625 26.703125 6.890625 
Q 35.15625 6.890625 40.078125 11.328125 
Q 45.015625 15.765625 45.015625 23.390625 
Q 45.015625 31 40.078125 35.4375 
Q 35.15625 39.890625 26.703125 39.890625 
Q 22.75 39.890625 18.8125 39.015625 
Q 14.890625 38.140625 10.796875 36.28125 
z
" id="BitstreamVeraSans-Roman-35"/>
      </defs>
      <g transform="translate(12.959999999999997 80.57177469036924)scale(0.12 -0.12)">
       <use xlink:href="#BitstreamVeraSans-Roman-31"/>
       <use x="63.623046875" xlink:href="#BitstreamVeraSans-Roman-35"/>
       <use x="127.24609375" xlink:href="#BitstreamVeraSans-Roman-30"/>
      </g>
     </g>
    </g>
    <g id="ytick_6">
     <g id="line2d_24">
      <g>
       <use style="stroke:#000000;stroke-width:0.5;" x="39.864999999999995" xlink:href="#m2fe5aecd86" y="67.58876975229543"/>
      </g>
     </g>
     <g id="line2d_25">
      <g>
       <use style="stroke:#000000;stroke-width:0.5;" x="259.4242504764913" xlink:href="#m376d642da9" y="67.58876975229543"/>
      </g>
     </g>
     <g id="text_12">
      <!-- 160 -->
      <defs>
       <path d="M 33.015625 40.375 
Q 26.375 40.375 22.484375 35.828125 
Q 18.609375 31.296875 18.609375 23.390625 
Q 18.609375 15.53125 22.484375 10.953125 
Q 26.375 6.390625 33.015625 6.390625 
Q 39.65625 6.390625 43.53125 10.953125 
Q 47.40625 15.53125 47.40625 23.390625 
Q 47.40625 31.296875 43.53125 35.828125 
Q 39.65625 40.375 33.015625 40.375 
M 52.59375 71.296875 
L 52.59375 62.3125 
Q 48.875 64.0625 45.09375 64.984375 
Q 41.3125 65.921875 37.59375 65.921875 
Q 27.828125 65.921875 22.671875 59.328125 
Q 17.53125 52.734375 16.796875 39.40625 
Q 19.671875 43.65625 24.015625 45.921875 
Q 28.375 48.1875 33.59375 48.1875 
Q 44.578125 48.1875 50.953125 41.515625 
Q 57.328125 34.859375 57.328125 23.390625 
Q 57.328125 12.15625 50.6875 5.359375 
Q 44.046875 -1.421875 33.015625 -1.421875 
Q 20.359375 -1.421875 13.671875 8.265625 
Q 6.984375 17.96875 6.984375 36.375 
Q 6.984375 53.65625 15.1875 63.9375 
Q 23.390625 74.21875 37.203125 74.21875 
Q 40.921875 74.21875 44.703125 73.484375 
Q 48.484375 72.75 52.59375 71.296875 
" id="BitstreamVeraSans-Roman-36"/>
      </defs>
      <g transform="translate(12.959999999999997 70.9000197522954)scale(0.12 -0.12)">
       <use xlink:href="#BitstreamVeraSans-Roman-31"/>
       <use x="63.623046875" xlink:href="#BitstreamVeraSans-Roman-36"/>
       <use x="127.24609375" xlink:href="#BitstreamVeraSans-Roman-30"/>
      </g>
     </g>
    </g>
    <g id="ytick_7">
     <g id="line2d_26">
      <g>
       <use style="stroke:#000000;stroke-width:0.5;" x="39.864999999999995" xlink:href="#m2fe5aecd86" y="57.917014814221574"/>
      </g>
     </g>
     <g id="line2d_27">
      <g>
       <use style="stroke:#000000;stroke-width:0.5;" x="259.4242504764913" xlink:href="#m376d642da9" y="57.917014814221574"/>
      </g>
     </g>
     <g id="text_13">
      <!-- 170 -->
      <g transform="translate(12.959999999999997 61.228264814221575)scale(0.12 -0.12)">
       <use xlink:href="#BitstreamVeraSans-Roman-31"/>
       <use x="63.623046875" xlink:href="#BitstreamVeraSans-Roman-37"/>
       <use x="127.24609375" xlink:href="#BitstreamVeraSans-Roman-30"/>
      </g>
     </g>
    </g>
    <g id="ytick_8">
     <g id="line2d_28">
      <g>
       <use style="stroke:#000000;stroke-width:0.5;" x="39.864999999999995" xlink:href="#m2fe5aecd86" y="48.24525987614771"/>
      </g>
     </g>
     <g id="line2d_29">
      <g>
       <use style="stroke:#000000;stroke-width:0.5;" x="259.4242504764913" xlink:href="#m376d642da9" y="48.24525987614771"/>
      </g>
     </g>
     <g id="text_14">
      <!-- 180 -->
      <g transform="translate(12.959999999999997 51.556509876147686)scale(0.12 -0.12)">
       <use xlink:href="#BitstreamVeraSans-Roman-31"/>
       <use x="63.623046875" xlink:href="#BitstreamVeraSans-Roman-38"/>
       <use x="127.24609375" xlink:href="#BitstreamVeraSans-Roman-30"/>
      </g>
     </g>
    </g>
    <g id="ytick_9">
     <g id="line2d_30">
      <g>
       <use style="stroke:#000000;stroke-width:0.5;" x="39.864999999999995" xlink:href="#m2fe5aecd86" y="38.57350493807385"/>
      </g>
     </g>
     <g id="line2d_31">
      <g>
       <use style="stroke:#000000;stroke-width:0.5;" x="259.4242504764913" xlink:href="#m376d642da9" y="38.57350493807385"/>
      </g>
     </g>
     <g id="text_15">
      <!-- 190 -->
      <defs>
       <path d="M 10.984375 1.515625 
L 10.984375 10.5 
Q 14.703125 8.734375 18.5 7.8125 
Q 22.3125 6.890625 25.984375 6.890625 
Q 35.75 6.890625 40.890625 13.453125 
Q 46.046875 20.015625 46.78125 33.40625 
Q 43.953125 29.203125 39.59375 26.953125 
Q 35.25 24.703125 29.984375 24.703125 
Q 19.046875 24.703125 12.671875 31.3125 
Q 6.296875 37.9375 6.296875 49.421875 
Q 6.296875 60.640625 12.9375 67.421875 
Q 19.578125 74.21875 30.609375 74.21875 
Q 43.265625 74.21875 49.921875 64.515625 
Q 56.59375 54.828125 56.59375 36.375 
Q 56.59375 19.140625 48.40625 8.859375 
Q 40.234375 -1.421875 26.421875 -1.421875 
Q 22.703125 -1.421875 18.890625 -0.6875 
Q 15.09375 0.046875 10.984375 1.515625 
M 30.609375 32.421875 
Q 37.25 32.421875 41.125 36.953125 
Q 45.015625 41.5 45.015625 49.421875 
Q 45.015625 57.28125 41.125 61.84375 
Q 37.25 66.40625 30.609375 66.40625 
Q 23.96875 66.40625 20.09375 61.84375 
Q 16.21875 57.28125 16.21875 49.421875 
Q 16.21875 41.5 20.09375 36.953125 
Q 23.96875 32.421875 30.609375 32.421875 
" id="BitstreamVeraSans-Roman-39"/>
      </defs>
      <g transform="translate(12.959999999999997 41.8847549380738)scale(0.12 -0.12)">
       <use xlink:href="#BitstreamVeraSans-Roman-31"/>
       <use x="63.623046875" xlink:href="#BitstreamVeraSans-Roman-39"/>
       <use x="127.24609375" xlink:href="#BitstreamVeraSans-Roman-30"/>
      </g>
     </g>
    </g>
    <g id="ytick_10">
     <g id="line2d_32">
      <g>
       <use style="stroke:#000000;stroke-width:0.5;" x="39.864999999999995" xlink:href="#m2fe5aecd86" y="28.901749999999993"/>
      </g>
     </g>
     <g id="line2d_33">
      <g>
       <use style="stroke:#000000;stroke-width:0.5;" x="259.4242504764913" xlink:href="#m376d642da9" y="28.901749999999993"/>
      </g>
     </g>
     <g id="text_16">
      <!-- 200 -->
      <g transform="translate(12.959999999999997 32.212999999999965)scale(0.12 -0.12)">
       <use xlink:href="#BitstreamVeraSans-Roman-32"/>
       <use x="63.623046875" xlink:href="#BitstreamVeraSans-Roman-30"/>
       <use x="127.24609375" xlink:href="#BitstreamVeraSans-Roman-30"/>
      </g>
     </g>
    </g>
   </g>
   <g id="text_17">
    <!-- AAPL: Nov. 2007 to Apr. 2008 -->
    <defs>
     <path d="M 19.671875 64.796875 
L 19.671875 37.40625 
L 32.078125 37.40625 
Q 38.96875 37.40625 42.71875 40.96875 
Q 46.484375 44.53125 46.484375 51.125 
Q 46.484375 57.671875 42.71875 61.234375 
Q 38.96875 64.796875 32.078125 64.796875 
z
M 9.8125 72.90625 
L 32.078125 72.90625 
Q 44.34375 72.90625 50.609375 67.359375 
Q 56.890625 61.8125 56.890625 51.125 
Q 56.890625 40.328125 50.609375 34.8125 
Q 44.34375 29.296875 32.078125 29.296875 
L 19.671875 29.296875 
L 19.671875 0 
L 9.8125 0 
z
" id="BitstreamVeraSans-Roman-50"/>
     <path d="M 11.71875 12.40625 
L 22.015625 12.40625 
L 22.015625 0 
L 11.71875 0 
z
M 11.71875 51.703125 
L 22.015625 51.703125 
L 22.015625 39.3125 
L 11.71875 39.3125 
z
" id="BitstreamVeraSans-Roman-3a"/>
     <path d="M 10.6875 12.40625 
L 21 12.40625 
L 21 0 
L 10.6875 0 
z
" id="BitstreamVeraSans-Roman-2e"/>
     <path d="M 18.3125 70.21875 
L 18.3125 54.6875 
L 36.8125 54.6875 
L 36.8125 47.703125 
L 18.3125 47.703125 
L 18.3125 18.015625 
Q 18.3125 11.328125 20.140625 9.421875 
Q 21.96875 7.515625 27.59375 7.515625 
L 36.8125 7.515625 
L 36.8125 0 
L 27.59375 0 
Q 17.1875 0 13.234375 3.875 
Q 9.28125 7.765625 9.28125 18.015625 
L 9.28125 47.703125 
L 2.6875 47.703125 
L 2.6875 54.6875 
L 9.28125 54.6875 
L 9.28125 70.21875 
z
" id="BitstreamVeraSans-Roman-74"/>
     <path d="M 9.8125 72.90625 
L 19.671875 72.90625 
L 19.671875 8.296875 
L 55.171875 8.296875 
L 55.171875 0 
L 9.8125 0 
z
" id="BitstreamVeraSans-Roman-4c"/>
    </defs>
    <g transform="translate(42.627875238245636 23.901749999999993)scale(0.144 -0.144)">
     <use xlink:href="#BitstreamVeraSans-Roman-41"/>
     <use x="68.439453125" xlink:href="#BitstreamVeraSans-Roman-41"/>
     <use x="136.84765625" xlink:href="#BitstreamVeraSans-Roman-50"/>
     <use x="197.150390625" xlink:href="#BitstreamVeraSans-Roman-4c"/>
     <use x="252.86328125" xlink:href="#BitstreamVeraSans-Roman-3a"/>
     <use x="286.5546875" xlink:href="#BitstreamVeraSans-Roman-20"/>
     <use x="318.341796875" xlink:href="#BitstreamVeraSans-Roman-4e"/>
     <use x="393.146484375" xlink:href="#BitstreamVeraSans-Roman-6f"/>
     <use x="454.328125" xlink:href="#BitstreamVeraSans-Roman-76"/>
     <use x="513.3984375" xlink:href="#BitstreamVeraSans-Roman-2e"/>
     <use x="545.185546875" xlink:href="#BitstreamVeraSans-Roman-20"/>
     <use x="576.97265625" xlink:href="#BitstreamVeraSans-Roman-32"/>
     <use x="640.595703125" xlink:href="#BitstreamVeraSans-Roman-30"/>
     <use x="704.21875" xlink:href="#BitstreamVeraSans-Roman-30"/>
     <use x="767.841796875" xlink:href="#BitstreamVeraSans-Roman-37"/>
     <use x="831.46484375" xlink:href="#BitstreamVeraSans-Roman-20"/>
     <use x="863.251953125" xlink:href="#BitstreamVeraSans-Roman-74"/>
     <use x="902.4609375" xlink:href="#BitstreamVeraSans-Roman-6f"/>
     <use x="963.642578125" xlink:href="#BitstreamVeraSans-Roman-20"/>
     <use x="995.4296875" xlink:href="#BitstreamVeraSans-Roman-41"/>
     <use x="1063.837890625" xlink:href="#BitstreamVeraSans-Roman-70"/>
     <use x="1127.314453125" xlink:href="#BitstreamVeraSans-Roman-72"/>
     <use x="1168.287109375" xlink:href="#BitstreamVeraSans-Roman-2e"/>
     <use x="1200.07421875" xlink:href="#BitstreamVeraSans-Roman-20"/>
     <use x="1231.861328125" xlink:href="#BitstreamVeraSans-Roman-32"/>
     <use x="1295.484375" xlink:href="#BitstreamVeraSans-Roman-30"/>
     <use x="1359.107421875" xlink:href="#BitstreamVeraSans-Roman-30"/>
     <use x="1422.73046875" xlink:href="#BitstreamVeraSans-Roman-38"/>
    </g>
   </g>
  </g>
  <g id="axes_2">
   <g id="patch_7">
    <path d="M 39.865 284.961228 
L 259.42425 284.961228 
L 259.42425 197.915434 
L 39.865 197.915434 
z
" style="fill:#ffffff;"/>
   </g>
   <g id="line2d_34">
    <path clip-path="url(#p18c3c9ca05)" d="M 39.865 204.331953 
L 47.436009 204.220034 
L 55.007017 222.723492 
L 77.720043 225.720355 
L 85.291052 233.666393 
L 92.86206 223.531775 
L 100.433069 225.247811 
L 108.004078 231.875728 
L 130.717104 224.302737 
L 138.288112 236.414549 
L 145.859121 248.103557 
L 153.43013 246.549167 
L 161.001138 245.964719 
L 191.285173 253.077601 
L 198.856181 273.682574 
L 206.42719 277.997557 
L 213.998199 284.948796 
L 236.711225 284.948796 
L 244.282233 283.046212 
L 251.853242 282.25038 
L 259.42425 278.296006 
" style="fill:none;stroke:#008000;stroke-linecap:square;"/>
   </g>
   <g id="patch_8">
    <path d="M 39.865 284.961228 
L 259.42425 284.961228 
" style="fill:none;stroke:#000000;stroke-linecap:square;stroke-linejoin:miter;"/>
   </g>
   <g id="patch_9">
    <path d="M 39.865 197.915434 
L 259.42425 197.915434 
" style="fill:none;stroke:#000000;stroke-linecap:square;stroke-linejoin:miter;"/>
   </g>
   <g id="patch_10">
    <path d="M 39.865 284.961228 
L 39.865 197.915434 
" style="fill:none;stroke:#000000;stroke-linecap:square;stroke-linejoin:miter;"/>
   </g>
   <g id="patch_11">
    <path d="M 259.42425 284.961228 
L 259.42425 197.915434 
" style="fill:none;stroke:#000000;stroke-linecap:square;stroke-linejoin:miter;"/>
   </g>
   <g id="matplotlib.axis_3">
    <g id="xtick_7">
     <g id="line2d_35">
      <g>
       <use style="stroke:#000000;stroke-width:0.5;" x="47.43600863777101" xlink:href="#md9226005ee" y="284.961228431864"/>
      </g>
     </g>
     <g id="line2d_36">
      <g>
       <use style="stroke:#000000;stroke-width:0.5;" x="47.43600863777101" xlink:href="#m05e0a78ec8" y="197.91543398919927"/>
      </g>
     </g>
     <g id="text_18">
      <!-- Jan 03 2008 -->
      <g transform="translate(24.34411087290957 346.27532663920135)rotate(-45.0)scale(0.12 -0.12)">
       <use xlink:href="#BitstreamVeraSans-Roman-4a"/>
       <use x="29.4921875" xlink:href="#BitstreamVeraSans-Roman-61"/>
       <use x="90.771484375" xlink:href="#BitstreamVeraSans-Roman-6e"/>
       <use x="154.150390625" xlink:href="#BitstreamVeraSans-Roman-20"/>
       <use x="185.9375" xlink:href="#BitstreamVeraSans-Roman-30"/>
       <use x="249.560546875" xlink:href="#BitstreamVeraSans-Roman-33"/>
       <use x="313.18359375" xlink:href="#BitstreamVeraSans-Roman-20"/>
       <use x="344.970703125" xlink:href="#BitstreamVeraSans-Roman-32"/>
       <use x="408.59375" xlink:href="#BitstreamVeraSans-Roman-30"/>
       <use x="472.216796875" xlink:href="#BitstreamVeraSans-Roman-30"/>
       <use x="535.83984375" xlink:href="#BitstreamVeraSans-Roman-38"/>
      </g>
     </g>
    </g>
    <g id="xtick_8">
     <g id="line2d_37">
      <g>
       <use style="stroke:#000000;stroke-width:0.5;" x="70.14903454855084" xlink:href="#md9226005ee" y="284.961228431864"/>
      </g>
     </g>
     <g id="line2d_38">
      <g>
       <use style="stroke:#000000;stroke-width:0.5;" x="70.14903454855084" xlink:href="#m05e0a78ec8" y="197.91543398919927"/>
      </g>
     </g>
     <g id="text_19">
      <!-- Jan 06 2008 -->
      <g transform="translate(47.0571367836894 346.27532663920135)rotate(-45.0)scale(0.12 -0.12)">
       <use xlink:href="#BitstreamVeraSans-Roman-4a"/>
       <use x="29.4921875" xlink:href="#BitstreamVeraSans-Roman-61"/>
       <use x="90.771484375" xlink:href="#BitstreamVeraSans-Roman-6e"/>
       <use x="154.150390625" xlink:href="#BitstreamVeraSans-Roman-20"/>
       <use x="185.9375" xlink:href="#BitstreamVeraSans-Roman-30"/>
       <use x="249.560546875" xlink:href="#BitstreamVeraSans-Roman-36"/>
       <use x="313.18359375" xlink:href="#BitstreamVeraSans-Roman-20"/>
       <use x="344.970703125" xlink:href="#BitstreamVeraSans-Roman-32"/>
       <use x="408.59375" xlink:href="#BitstreamVeraSans-Roman-30"/>
       <use x="472.216796875" xlink:href="#BitstreamVeraSans-Roman-30"/>
       <use x="535.83984375" xlink:href="#BitstreamVeraSans-Roman-38"/>
      </g>
     </g>
    </g>
    <g id="xtick_9">
     <g id="line2d_39">
      <g>
       <use style="stroke:#000000;stroke-width:0.5;" x="92.862060460262" xlink:href="#md9226005ee" y="284.961228431864"/>
      </g>
     </g>
     <g id="line2d_40">
      <g>
       <use style="stroke:#000000;stroke-width:0.5;" x="92.862060460262" xlink:href="#m05e0a78ec8" y="197.91543398919927"/>
      </g>
     </g>
     <g id="text_20">
      <!-- Jan 09 2008 -->
      <g transform="translate(69.77016269540056 346.27532663920135)rotate(-45.0)scale(0.12 -0.12)">
       <use xlink:href="#BitstreamVeraSans-Roman-4a"/>
       <use x="29.4921875" xlink:href="#BitstreamVeraSans-Roman-61"/>
       <use x="90.771484375" xlink:href="#BitstreamVeraSans-Roman-6e"/>
       <use x="154.150390625" xlink:href="#BitstreamVeraSans-Roman-20"/>
       <use x="185.9375" xlink:href="#BitstreamVeraSans-Roman-30"/>
       <use x="249.560546875" xlink:href="#BitstreamVeraSans-Roman-39"/>
       <use x="313.18359375" xlink:href="#BitstreamVeraSans-Roman-20"/>
       <use x="344.970703125" xlink:href="#BitstreamVeraSans-Roman-32"/>
       <use x="408.59375" xlink:href="#BitstreamVeraSans-Roman-30"/>
       <use x="472.216796875" xlink:href="#BitstreamVeraSans-Roman-30"/>
       <use x="535.83984375" xlink:href="#BitstreamVeraSans-Roman-38"/>
      </g>
     </g>
    </g>
    <g id="xtick_10">
     <g id="line2d_41">
      <g>
       <use style="stroke:#000000;stroke-width:0.5;" x="115.57508637197316" xlink:href="#md9226005ee" y="284.961228431864"/>
      </g>
     </g>
     <g id="line2d_42">
      <g>
       <use style="stroke:#000000;stroke-width:0.5;" x="115.57508637197316" xlink:href="#m05e0a78ec8" y="197.91543398919927"/>
      </g>
     </g>
     <g id="text_21">
      <!-- Jan 12 2008 -->
      <g transform="translate(92.48318860711171 346.27532663920135)rotate(-45.0)scale(0.12 -0.12)">
       <use xlink:href="#BitstreamVeraSans-Roman-4a"/>
       <use x="29.4921875" xlink:href="#BitstreamVeraSans-Roman-61"/>
       <use x="90.771484375" xlink:href="#BitstreamVeraSans-Roman-6e"/>
       <use x="154.150390625" xlink:href="#BitstreamVeraSans-Roman-20"/>
       <use x="185.9375" xlink:href="#BitstreamVeraSans-Roman-31"/>
       <use x="249.560546875" xlink:href="#BitstreamVeraSans-Roman-32"/>
       <use x="313.18359375" xlink:href="#BitstreamVeraSans-Roman-20"/>
       <use x="344.970703125" xlink:href="#BitstreamVeraSans-Roman-32"/>
       <use x="408.59375" xlink:href="#BitstreamVeraSans-Roman-30"/>
       <use x="472.216796875" xlink:href="#BitstreamVeraSans-Roman-30"/>
       <use x="535.83984375" xlink:href="#BitstreamVeraSans-Roman-38"/>
      </g>
     </g>
    </g>
    <g id="xtick_11">
     <g id="line2d_43">
      <g>
       <use style="stroke:#000000;stroke-width:0.5;" x="138.288112282753" xlink:href="#md9226005ee" y="284.961228431864"/>
      </g>
     </g>
     <g id="line2d_44">
      <g>
       <use style="stroke:#000000;stroke-width:0.5;" x="138.288112282753" xlink:href="#m05e0a78ec8" y="197.91543398919927"/>
      </g>
     </g>
     <g id="text_22">
      <!-- Jan 15 2008 -->
      <g transform="translate(115.19621451789155 346.27532663920135)rotate(-45.0)scale(0.12 -0.12)">
       <use xlink:href="#BitstreamVeraSans-Roman-4a"/>
       <use x="29.4921875" xlink:href="#BitstreamVeraSans-Roman-61"/>
       <use x="90.771484375" xlink:href="#BitstreamVeraSans-Roman-6e"/>
       <use x="154.150390625" xlink:href="#BitstreamVeraSans-Roman-20"/>
       <use x="185.9375" xlink:href="#BitstreamVeraSans-Roman-31"/>
       <use x="249.560546875" xlink:href="#BitstreamVeraSans-Roman-35"/>
       <use x="313.18359375" xlink:href="#BitstreamVeraSans-Roman-20"/>
       <use x="344.970703125" xlink:href="#BitstreamVeraSans-Roman-32"/>
       <use x="408.59375" xlink:href="#BitstreamVeraSans-Roman-30"/>
       <use x="472.216796875" xlink:href="#BitstreamVeraSans-Roman-30"/>
       <use x="535.83984375" xlink:href="#BitstreamVeraSans-Roman-38"/>
      </g>
     </g>
    </g>
    <g id="xtick_12">
     <g id="line2d_45">
      <g>
       <use style="stroke:#000000;stroke-width:0.5;" x="161.00113819446415" xlink:href="#md9226005ee" y="284.961228431864"/>
      </g>
     </g>
     <g id="line2d_46">
      <g>
       <use style="stroke:#000000;stroke-width:0.5;" x="161.00113819446415" xlink:href="#m05e0a78ec8" y="197.91543398919927"/>
      </g>
     </g>
     <g id="text_23">
      <!-- Jan 18 2008 -->
      <g transform="translate(137.9092404296027 346.27532663920135)rotate(-45.0)scale(0.12 -0.12)">
       <use xlink:href="#BitstreamVeraSans-Roman-4a"/>
       <use x="29.4921875" xlink:href="#BitstreamVeraSans-Roman-61"/>
       <use x="90.771484375" xlink:href="#BitstreamVeraSans-Roman-6e"/>
       <use x="154.150390625" xlink:href="#BitstreamVeraSans-Roman-20"/>
       <use x="185.9375" xlink:href="#BitstreamVeraSans-Roman-31"/>
       <use x="249.560546875" xlink:href="#BitstreamVeraSans-Roman-38"/>
       <use x="313.18359375" xlink:href="#BitstreamVeraSans-Roman-20"/>
       <use x="344.970703125" xlink:href="#BitstreamVeraSans-Roman-32"/>
       <use x="408.59375" xlink:href="#BitstreamVeraSans-Roman-30"/>
       <use x="472.216796875" xlink:href="#BitstreamVeraSans-Roman-30"/>
       <use x="535.83984375" xlink:href="#BitstreamVeraSans-Roman-38"/>
      </g>
     </g>
    </g>
    <g id="xtick_13">
     <g id="line2d_47">
      <g>
       <use style="stroke:#000000;stroke-width:0.5;" x="183.71416410524398" xlink:href="#md9226005ee" y="284.961228431864"/>
      </g>
     </g>
     <g id="line2d_48">
      <g>
       <use style="stroke:#000000;stroke-width:0.5;" x="183.71416410524398" xlink:href="#m05e0a78ec8" y="197.91543398919927"/>
      </g>
     </g>
     <g id="text_24">
      <!-- Jan 21 2008 -->
      <g transform="translate(160.62226634038254 346.27532663920135)rotate(-45.0)scale(0.12 -0.12)">
       <use xlink:href="#BitstreamVeraSans-Roman-4a"/>
       <use x="29.4921875" xlink:href="#BitstreamVeraSans-Roman-61"/>
       <use x="90.771484375" xlink:href="#BitstreamVeraSans-Roman-6e"/>
       <use x="154.150390625" xlink:href="#BitstreamVeraSans-Roman-20"/>
       <use x="185.9375" xlink:href="#BitstreamVeraSans-Roman-32"/>
       <use x="249.560546875" xlink:href="#BitstreamVeraSans-Roman-31"/>
       <use x="313.18359375" xlink:href="#BitstreamVeraSans-Roman-20"/>
       <use x="344.970703125" xlink:href="#BitstreamVeraSans-Roman-32"/>
       <use x="408.59375" xlink:href="#BitstreamVeraSans-Roman-30"/>
       <use x="472.216796875" xlink:href="#BitstreamVeraSans-Roman-30"/>
       <use x="535.83984375" xlink:href="#BitstreamVeraSans-Roman-38"/>
      </g>
     </g>
    </g>
    <g id="xtick_14">
     <g id="line2d_49">
      <g>
       <use style="stroke:#000000;stroke-width:0.5;" x="206.42719001695514" xlink:href="#md9226005ee" y="284.961228431864"/>
      </g>
     </g>
     <g id="line2d_50">
      <g>
       <use style="stroke:#000000;stroke-width:0.5;" x="206.42719001695514" xlink:href="#m05e0a78ec8" y="197.91543398919927"/>
      </g>
     </g>
     <g id="text_25">
      <!-- Jan 24 2008 -->
      <g transform="translate(183.3352922520937 346.27532663920135)rotate(-45.0)scale(0.12 -0.12)">
       <use xlink:href="#BitstreamVeraSans-Roman-4a"/>
       <use x="29.4921875" xlink:href="#BitstreamVeraSans-Roman-61"/>
       <use x="90.771484375" xlink:href="#BitstreamVeraSans-Roman-6e"/>
       <use x="154.150390625" xlink:href="#BitstreamVeraSans-Roman-20"/>
       <use x="185.9375" xlink:href="#BitstreamVeraSans-Roman-32"/>
       <use x="249.560546875" xlink:href="#BitstreamVeraSans-Roman-34"/>
       <use x="313.18359375" xlink:href="#BitstreamVeraSans-Roman-20"/>
       <use x="344.970703125" xlink:href="#BitstreamVeraSans-Roman-32"/>
       <use x="408.59375" xlink:href="#BitstreamVeraSans-Roman-30"/>
       <use x="472.216796875" xlink:href="#BitstreamVeraSans-Roman-30"/>
       <use x="535.83984375" xlink:href="#BitstreamVeraSans-Roman-38"/>
      </g>
     </g>
    </g>
    <g id="xtick_15">
     <g id="line2d_51">
      <g>
       <use style="stroke:#000000;stroke-width:0.5;" x="229.1402159286663" xlink:href="#md9226005ee" y="284.961228431864"/>
      </g>
     </g>
     <g id="line2d_52">
      <g>
       <use style="stroke:#000000;stroke-width:0.5;" x="229.1402159286663" xlink:href="#m05e0a78ec8" y="197.91543398919927"/>
      </g>
     </g>
     <g id="text_26">
      <!-- Jan 27 2008 -->
      <g transform="translate(206.04831816380485 346.27532663920135)rotate(-45.0)scale(0.12 -0.12)">
       <use xlink:href="#BitstreamVeraSans-Roman-4a"/>
       <use x="29.4921875" xlink:href="#BitstreamVeraSans-Roman-61"/>
       <use x="90.771484375" xlink:href="#BitstreamVeraSans-Roman-6e"/>
       <use x="154.150390625" xlink:href="#BitstreamVeraSans-Roman-20"/>
       <use x="185.9375" xlink:href="#BitstreamVeraSans-Roman-32"/>
       <use x="249.560546875" xlink:href="#BitstreamVeraSans-Roman-37"/>
       <use x="313.18359375" xlink:href="#BitstreamVeraSans-Roman-20"/>
       <use x="344.970703125" xlink:href="#BitstreamVeraSans-Roman-32"/>
       <use x="408.59375" xlink:href="#BitstreamVeraSans-Roman-30"/>
       <use x="472.216796875" xlink:href="#BitstreamVeraSans-Roman-30"/>
       <use x="535.83984375" xlink:href="#BitstreamVeraSans-Roman-38"/>
      </g>
     </g>
    </g>
    <g id="xtick_16">
     <g id="line2d_53">
      <g>
       <use style="stroke:#000000;stroke-width:0.5;" x="251.85324183944613" xlink:href="#md9226005ee" y="284.961228431864"/>
      </g>
     </g>
     <g id="line2d_54">
      <g>
       <use style="stroke:#000000;stroke-width:0.5;" x="251.85324183944613" xlink:href="#m05e0a78ec8" y="197.91543398919927"/>
      </g>
     </g>
     <g id="text_27">
      <!-- Jan 30 2008 -->
      <g transform="translate(228.76134407458468 346.27532663920135)rotate(-45.0)scale(0.12 -0.12)">
       <use xlink:href="#BitstreamVeraSans-Roman-4a"/>
       <use x="29.4921875" xlink:href="#BitstreamVeraSans-Roman-61"/>
       <use x="90.771484375" xlink:href="#BitstreamVeraSans-Roman-6e"/>
       <use x="154.150390625" xlink:href="#BitstreamVeraSans-Roman-20"/>
       <use x="185.9375" xlink:href="#BitstreamVeraSans-Roman-33"/>
       <use x="249.560546875" xlink:href="#BitstreamVeraSans-Roman-30"/>
       <use x="313.18359375" xlink:href="#BitstreamVeraSans-Roman-20"/>
       <use x="344.970703125" xlink:href="#BitstreamVeraSans-Roman-32"/>
       <use x="408.59375" xlink:href="#BitstreamVeraSans-Roman-30"/>
       <use x="472.216796875" xlink:href="#BitstreamVeraSans-Roman-30"/>
       <use x="535.83984375" xlink:href="#BitstreamVeraSans-Roman-38"/>
      </g>
     </g>
    </g>
   </g>
   <g id="matplotlib.axis_4">
    <g id="ytick_11">
     <g id="line2d_55">
      <g>
       <use style="stroke:#000000;stroke-width:0.5;" x="39.864999999999995" xlink:href="#m2fe5aecd86" y="284.96122843186396"/>
      </g>
     </g>
     <g id="line2d_56">
      <g>
       <use style="stroke:#000000;stroke-width:0.5;" x="259.4242504764913" xlink:href="#m376d642da9" y="284.96122843186396"/>
      </g>
     </g>
     <g id="text_28">
      <!-- 130 -->
      <g transform="translate(12.959999999999997 288.272478431864)scale(0.12 -0.12)">
       <use xlink:href="#BitstreamVeraSans-Roman-31"/>
       <use x="63.623046875" xlink:href="#BitstreamVeraSans-Roman-33"/>
       <use x="127.24609375" xlink:href="#BitstreamVeraSans-Roman-30"/>
      </g>
     </g>
    </g>
    <g id="ytick_12">
     <g id="line2d_57">
      <g>
       <use style="stroke:#000000;stroke-width:0.5;" x="39.864999999999995" xlink:href="#m2fe5aecd86" y="272.5261149400547"/>
      </g>
     </g>
     <g id="line2d_58">
      <g>
       <use style="stroke:#000000;stroke-width:0.5;" x="259.4242504764913" xlink:href="#m376d642da9" y="272.5261149400547"/>
      </g>
     </g>
     <g id="text_29">
      <!-- 140 -->
      <g transform="translate(12.959999999999997 275.8373649400547)scale(0.12 -0.12)">
       <use xlink:href="#BitstreamVeraSans-Roman-31"/>
       <use x="63.623046875" xlink:href="#BitstreamVeraSans-Roman-34"/>
       <use x="127.24609375" xlink:href="#BitstreamVeraSans-Roman-30"/>
      </g>
     </g>
    </g>
    <g id="ytick_13">
     <g id="line2d_59">
      <g>
       <use style="stroke:#000000;stroke-width:0.5;" x="39.864999999999995" xlink:href="#m2fe5aecd86" y="260.0910014482455"/>
      </g>
     </g>
     <g id="line2d_60">
      <g>
       <use style="stroke:#000000;stroke-width:0.5;" x="259.4242504764913" xlink:href="#m376d642da9" y="260.0910014482455"/>
      </g>
     </g>
     <g id="text_30">
      <!-- 150 -->
      <g transform="translate(12.959999999999997 263.40225144824547)scale(0.12 -0.12)">
       <use xlink:href="#BitstreamVeraSans-Roman-31"/>
       <use x="63.623046875" xlink:href="#BitstreamVeraSans-Roman-35"/>
       <use x="127.24609375" xlink:href="#BitstreamVeraSans-Roman-30"/>
      </g>
     </g>
    </g>
    <g id="ytick_14">
     <g id="line2d_61">
      <g>
       <use style="stroke:#000000;stroke-width:0.5;" x="39.864999999999995" xlink:href="#m2fe5aecd86" y="247.6558879564362"/>
      </g>
     </g>
     <g id="line2d_62">
      <g>
       <use style="stroke:#000000;stroke-width:0.5;" x="259.4242504764913" xlink:href="#m376d642da9" y="247.6558879564362"/>
      </g>
     </g>
     <g id="text_31">
      <!-- 160 -->
      <g transform="translate(12.959999999999997 250.96713795643623)scale(0.12 -0.12)">
       <use xlink:href="#BitstreamVeraSans-Roman-31"/>
       <use x="63.623046875" xlink:href="#BitstreamVeraSans-Roman-36"/>
       <use x="127.24609375" xlink:href="#BitstreamVeraSans-Roman-30"/>
      </g>
     </g>
    </g>
    <g id="ytick_15">
     <g id="line2d_63">
      <g>
       <use style="stroke:#000000;stroke-width:0.5;" x="39.864999999999995" xlink:href="#m2fe5aecd86" y="235.22077446462694"/>
      </g>
     </g>
     <g id="line2d_64">
      <g>
       <use style="stroke:#000000;stroke-width:0.5;" x="259.4242504764913" xlink:href="#m376d642da9" y="235.22077446462694"/>
      </g>
     </g>
     <g id="text_32">
      <!-- 170 -->
      <g transform="translate(12.959999999999997 238.53202446462697)scale(0.12 -0.12)">
       <use xlink:href="#BitstreamVeraSans-Roman-31"/>
       <use x="63.623046875" xlink:href="#BitstreamVeraSans-Roman-37"/>
       <use x="127.24609375" xlink:href="#BitstreamVeraSans-Roman-30"/>
      </g>
     </g>
    </g>
    <g id="ytick_16">
     <g id="line2d_65">
      <g>
       <use style="stroke:#000000;stroke-width:0.5;" x="39.864999999999995" xlink:href="#m2fe5aecd86" y="222.7856609728177"/>
      </g>
     </g>
     <g id="line2d_66">
      <g>
       <use style="stroke:#000000;stroke-width:0.5;" x="259.4242504764913" xlink:href="#m376d642da9" y="222.7856609728177"/>
      </g>
     </g>
     <g id="text_33">
      <!-- 180 -->
      <g transform="translate(12.959999999999997 226.09691097281774)scale(0.12 -0.12)">
       <use xlink:href="#BitstreamVeraSans-Roman-31"/>
       <use x="63.623046875" xlink:href="#BitstreamVeraSans-Roman-38"/>
       <use x="127.24609375" xlink:href="#BitstreamVeraSans-Roman-30"/>
      </g>
     </g>
    </g>
    <g id="ytick_17">
     <g id="line2d_67">
      <g>
       <use style="stroke:#000000;stroke-width:0.5;" x="39.864999999999995" xlink:href="#m2fe5aecd86" y="210.35054748100845"/>
      </g>
     </g>
     <g id="line2d_68">
      <g>
       <use style="stroke:#000000;stroke-width:0.5;" x="259.4242504764913" xlink:href="#m376d642da9" y="210.35054748100845"/>
      </g>
     </g>
     <g id="text_34">
      <!-- 190 -->
      <g transform="translate(12.959999999999997 213.66179748100848)scale(0.12 -0.12)">
       <use xlink:href="#BitstreamVeraSans-Roman-31"/>
       <use x="63.623046875" xlink:href="#BitstreamVeraSans-Roman-39"/>
       <use x="127.24609375" xlink:href="#BitstreamVeraSans-Roman-30"/>
      </g>
     </g>
    </g>
    <g id="ytick_18">
     <g id="line2d_69">
      <g>
       <use style="stroke:#000000;stroke-width:0.5;" x="39.864999999999995" xlink:href="#m2fe5aecd86" y="197.91543398919922"/>
      </g>
     </g>
     <g id="line2d_70">
      <g>
       <use style="stroke:#000000;stroke-width:0.5;" x="259.4242504764913" xlink:href="#m376d642da9" y="197.91543398919922"/>
      </g>
     </g>
     <g id="text_35">
      <!-- 200 -->
      <g transform="translate(12.959999999999997 201.22668398919924)scale(0.12 -0.12)">
       <use xlink:href="#BitstreamVeraSans-Roman-32"/>
       <use x="63.623046875" xlink:href="#BitstreamVeraSans-Roman-30"/>
       <use x="127.24609375" xlink:href="#BitstreamVeraSans-Roman-30"/>
      </g>
     </g>
    </g>
   </g>
   <g id="text_36">
    <!-- AAPL: Jan. 2008 -->
    <g transform="translate(92.72525023824562 192.91543398919924)scale(0.144 -0.144)">
     <use xlink:href="#BitstreamVeraSans-Roman-41"/>
     <use x="68.439453125" xlink:href="#BitstreamVeraSans-Roman-41"/>
     <use x="136.84765625" xlink:href="#BitstreamVeraSans-Roman-50"/>
     <use x="197.150390625" xlink:href="#BitstreamVeraSans-Roman-4c"/>
     <use x="252.86328125" xlink:href="#BitstreamVeraSans-Roman-3a"/>
     <use x="286.5546875" xlink:href="#BitstreamVeraSans-Roman-20"/>
     <use x="318.341796875" xlink:href="#BitstreamVeraSans-Roman-4a"/>
     <use x="347.833984375" xlink:href="#BitstreamVeraSans-Roman-61"/>
     <use x="409.11328125" xlink:href="#BitstreamVeraSans-Roman-6e"/>
     <use x="472.4921875" xlink:href="#BitstreamVeraSans-Roman-2e"/>
     <use x="504.279296875" xlink:href="#BitstreamVeraSans-Roman-20"/>
     <use x="536.06640625" xlink:href="#BitstreamVeraSans-Roman-32"/>
     <use x="599.689453125" xlink:href="#BitstreamVeraSans-Roman-30"/>
     <use x="663.3125" xlink:href="#BitstreamVeraSans-Roman-30"/>
     <use x="726.935546875" xlink:href="#BitstreamVeraSans-Roman-38"/>
    </g>
   </g>
  </g>
 </g>
 <defs>
  <clipPath id="p18c3c9ca05">
   <rect height="87.04579444266474" width="219.5592504764913" x="39.864999999999995" y="197.91543398919924"/>
  </clipPath>
  <clipPath id="p9c9ea03799">
   <rect height="87.04579444266474" width="219.5592504764913" x="39.864999999999995" y="28.901749999999993"/>
  </clipPath>
 </defs>
</svg>
